<svg width="248" height="130" viewBox="0 0 248 130" fill="none" xmlns="http://www.w3.org/2000/svg">
<rect x="5" width="239" height="65" fill="#006EFF"/>
<circle cx="5" cy="5" r="5" fill="#006EFF"/>
<circle cx="5" cy="15" r="5" fill="#006EFF"/>
<circle cx="5" cy="25" r="5" fill="#006EFF"/>
<circle cx="5" cy="35" r="5" fill="#006EFF"/>
<circle cx="5" cy="45" r="5" fill="#006EFF"/>
<circle cx="243" cy="55" r="5" fill="#006EFF"/>
<circle cx="5" cy="55" r="5" fill="#006EFF"/>
<circle cx="204" cy="61" r="40" fill="#006EFF"/>
<circle cx="204" cy="103" r="5" fill="#006EFF"/>
<circle cx="195" cy="103" r="5" fill="#006EFF"/>
<circle cx="187" cy="100" r="5" fill="#006EFF"/>
<circle cx="180" cy="95" r="5" fill="#006EFF"/>
<circle cx="170" cy="85" r="5" fill="#006EFF"/>
<circle cx="175" cy="90" r="5" fill="#006EFF"/>
<circle cx="165" cy="63" r="5" fill="#006EFF"/>
<circle cx="167" cy="78" r="5" fill="#006EFF"/>
<circle cx="165" cy="71" r="5" fill="#006EFF"/>
<circle cx="5" cy="5" r="5" transform="matrix(-1 0 0 1 217 98)" fill="#006EFF"/>
<circle cx="5" cy="5" r="5" transform="matrix(-1 0 0 1 225 95)" fill="#006EFF"/>
<ellipse cx="4.5" cy="5" rx="4.5" ry="5" transform="matrix(-1 0 0 1 231 90)" fill="#006EFF"/>
<circle cx="5" cy="5" r="5" transform="matrix(-1 0 0 1 241 80)" fill="#006EFF"/>
<ellipse cx="4.5" cy="5" rx="4.5" ry="5" transform="matrix(-1 0 0 1 236 85)" fill="#006EFF"/>
<circle cx="5" cy="5" r="5" transform="matrix(-1 0 0 1 246 58)" fill="#006EFF"/>
<circle cx="5" cy="5" r="5" transform="matrix(-1 0 0 1 244 73)" fill="#006EFF"/>
<circle cx="5" cy="5" r="5" transform="matrix(-1 0 0 1 246 66)" fill="#006EFF"/>
<circle cx="204" cy="61" r="40" fill="#006EFF"/>
<circle cx="204" cy="103" r="5" fill="#006EFF"/>
<circle cx="195" cy="103" r="5" fill="#006EFF"/>
<circle cx="187" cy="100" r="5" fill="#006EFF"/>
<circle cx="180" cy="95" r="5" fill="#006EFF"/>
<circle cx="170" cy="85" r="5" fill="#006EFF"/>
<circle cx="175" cy="90" r="5" fill="#006EFF"/>
<circle cx="165" cy="63" r="5" fill="#006EFF"/>
<circle cx="167" cy="78" r="5" fill="#006EFF"/>
<circle cx="165" cy="71" r="5" fill="#006EFF"/>
<circle cx="5" cy="5" r="5" transform="matrix(-1 0 0 1 217 98)" fill="#006EFF"/>
<circle cx="5" cy="5" r="5" transform="matrix(-1 0 0 1 225 95)" fill="#006EFF"/>
<ellipse cx="4.5" cy="5" rx="4.5" ry="5" transform="matrix(-1 0 0 1 231 90)" fill="#006EFF"/>
<circle cx="5" cy="5" r="5" transform="matrix(-1 0 0 1 241 80)" fill="#006EFF"/>
<ellipse cx="4.5" cy="5" rx="4.5" ry="5" transform="matrix(-1 0 0 1 236 85)" fill="#006EFF"/>
<circle cx="5" cy="5" r="5" transform="matrix(-1 0 0 1 246 58)" fill="#006EFF"/>
<circle cx="5" cy="5" r="5" transform="matrix(-1 0 0 1 244 73)" fill="#006EFF"/>
<circle cx="5" cy="5" r="5" transform="matrix(-1 0 0 1 246 66)" fill="#006EFF"/>
<circle cx="204" cy="61" r="40" fill="#006EFF"/>
<circle cx="204" cy="103" r="5" fill="#006EFF"/>
<circle cx="195" cy="103" r="5" fill="#006EFF"/>
<circle cx="187" cy="100" r="5" fill="#006EFF"/>
<circle cx="180" cy="95" r="5" fill="#006EFF"/>
<circle cx="170" cy="85" r="5" fill="#006EFF"/>
<circle cx="175" cy="90" r="5" fill="#006EFF"/>
<circle cx="165" cy="63" r="5" fill="#006EFF"/>
<circle cx="167" cy="78" r="5" fill="#006EFF"/>
<circle cx="165" cy="71" r="5" fill="#006EFF"/>
<circle cx="5" cy="5" r="5" transform="matrix(-1 0 0 1 217 98)" fill="#006EFF"/>
<circle cx="5" cy="5" r="5" transform="matrix(-1 0 0 1 225 95)" fill="#006EFF"/>
<ellipse cx="4.5" cy="5" rx="4.5" ry="5" transform="matrix(-1 0 0 1 231 90)" fill="#006EFF"/>
<circle cx="5" cy="5" r="5" transform="matrix(-1 0 0 1 241 80)" fill="#006EFF"/>
<ellipse cx="4.5" cy="5" rx="4.5" ry="5" transform="matrix(-1 0 0 1 236 85)" fill="#006EFF"/>
<circle cx="5" cy="5" r="5" transform="matrix(-1 0 0 1 246 58)" fill="#006EFF"/>
<circle cx="5" cy="5" r="5" transform="matrix(-1 0 0 1 244 73)" fill="#006EFF"/>
<circle cx="5" cy="5" r="5" transform="matrix(-1 0 0 1 246 66)" fill="#006EFF"/>
<circle cx="204" cy="61" r="40" fill="#006EFF"/>
<circle cx="204" cy="103" r="5" fill="#006EFF"/>
<circle cx="195" cy="103" r="5" fill="#006EFF"/>
<circle cx="187" cy="100" r="5" fill="#006EFF"/>
<circle cx="180" cy="95" r="5" fill="#006EFF"/>
<circle cx="170" cy="85" r="5" fill="#006EFF"/>
<circle cx="175" cy="90" r="5" fill="#006EFF"/>
<circle cx="165" cy="63" r="5" fill="#006EFF"/>
<circle cx="167" cy="78" r="5" fill="#006EFF"/>
<circle cx="165" cy="71" r="5" fill="#006EFF"/>
<circle cx="5" cy="5" r="5" transform="matrix(-1 0 0 1 217 98)" fill="#006EFF"/>
<circle cx="5" cy="5" r="5" transform="matrix(-1 0 0 1 225 95)" fill="#006EFF"/>
<ellipse cx="4.5" cy="5" rx="4.5" ry="5" transform="matrix(-1 0 0 1 231 90)" fill="#006EFF"/>
<circle cx="5" cy="5" r="5" transform="matrix(-1 0 0 1 241 80)" fill="#006EFF"/>
<ellipse cx="4.5" cy="5" rx="4.5" ry="5" transform="matrix(-1 0 0 1 236 85)" fill="#006EFF"/>
<circle cx="5" cy="5" r="5" transform="matrix(-1 0 0 1 246 58)" fill="#006EFF"/>
<circle cx="5" cy="5" r="5" transform="matrix(-1 0 0 1 244 73)" fill="#006EFF"/>
<circle cx="5" cy="5" r="5" transform="matrix(-1 0 0 1 246 66)" fill="#006EFF"/>
<circle cx="124" cy="60" r="40" fill="#006EFF"/>
<circle cx="124" cy="102" r="5" fill="#006EFF"/>
<circle cx="115" cy="102" r="5" fill="#006EFF"/>
<circle cx="107" cy="99" r="5" fill="#006EFF"/>
<circle cx="100" cy="94" r="5" fill="#006EFF"/>
<circle cx="90" cy="84" r="5" fill="#006EFF"/>
<circle cx="95" cy="89" r="5" fill="#006EFF"/>
<circle cx="87" cy="77" r="5" fill="#006EFF"/>
<circle cx="85" cy="70" r="5" fill="#006EFF"/>
<circle cx="5" cy="5" r="5" transform="matrix(-1 0 0 1 137 97)" fill="#006EFF"/>
<circle cx="5" cy="5" r="5" transform="matrix(-1 0 0 1 145 94)" fill="#006EFF"/>
<ellipse cx="4.5" cy="5" rx="4.5" ry="5" transform="matrix(-1 0 0 1 151 89)" fill="#006EFF"/>
<circle cx="5" cy="5" r="5" transform="matrix(-1 0 0 1 161 79)" fill="#006EFF"/>
<ellipse cx="4.5" cy="5" rx="4.5" ry="5" transform="matrix(-1 0 0 1 156 84)" fill="#006EFF"/>
<circle cx="5" cy="5" r="5" transform="matrix(-1 0 0 1 164 72)" fill="#006EFF"/>
<circle cx="5" cy="5" r="5" transform="matrix(-1 0 0 1 166 65)" fill="#006EFF"/>
<circle cx="124" cy="60" r="40" fill="#006EFF"/>
<circle cx="124" cy="102" r="5" fill="#006EFF"/>
<circle cx="115" cy="102" r="5" fill="#006EFF"/>
<circle cx="107" cy="99" r="5" fill="#006EFF"/>
<circle cx="100" cy="94" r="5" fill="#006EFF"/>
<circle cx="90" cy="84" r="5" fill="#006EFF"/>
<circle cx="95" cy="89" r="5" fill="#006EFF"/>
<circle cx="87" cy="77" r="5" fill="#006EFF"/>
<circle cx="85" cy="70" r="5" fill="#006EFF"/>
<circle cx="5" cy="5" r="5" transform="matrix(-1 0 0 1 137 97)" fill="#006EFF"/>
<circle cx="5" cy="5" r="5" transform="matrix(-1 0 0 1 145 94)" fill="#006EFF"/>
<ellipse cx="4.5" cy="5" rx="4.5" ry="5" transform="matrix(-1 0 0 1 151 89)" fill="#006EFF"/>
<circle cx="5" cy="5" r="5" transform="matrix(-1 0 0 1 161 79)" fill="#006EFF"/>
<ellipse cx="4.5" cy="5" rx="4.5" ry="5" transform="matrix(-1 0 0 1 156 84)" fill="#006EFF"/>
<circle cx="5" cy="5" r="5" transform="matrix(-1 0 0 1 164 72)" fill="#006EFF"/>
<circle cx="5" cy="5" r="5" transform="matrix(-1 0 0 1 166 65)" fill="#006EFF"/>
<circle cx="124" cy="60" r="40" fill="#006EFF"/>
<circle cx="124" cy="102" r="5" fill="#006EFF"/>
<circle cx="115" cy="102" r="5" fill="#006EFF"/>
<circle cx="107" cy="99" r="5" fill="#006EFF"/>
<circle cx="100" cy="94" r="5" fill="#006EFF"/>
<circle cx="90" cy="84" r="5" fill="#006EFF"/>
<circle cx="95" cy="89" r="5" fill="#006EFF"/>
<circle cx="87" cy="77" r="5" fill="#006EFF"/>
<circle cx="85" cy="70" r="5" fill="#006EFF"/>
<circle cx="5" cy="5" r="5" transform="matrix(-1 0 0 1 137 97)" fill="#006EFF"/>
<circle cx="5" cy="5" r="5" transform="matrix(-1 0 0 1 145 94)" fill="#006EFF"/>
<ellipse cx="4.5" cy="5" rx="4.5" ry="5" transform="matrix(-1 0 0 1 151 89)" fill="#006EFF"/>
<circle cx="5" cy="5" r="5" transform="matrix(-1 0 0 1 161 79)" fill="#006EFF"/>
<ellipse cx="4.5" cy="5" rx="4.5" ry="5" transform="matrix(-1 0 0 1 156 84)" fill="#006EFF"/>
<circle cx="5" cy="5" r="5" transform="matrix(-1 0 0 1 164 72)" fill="#006EFF"/>
<circle cx="5" cy="5" r="5" transform="matrix(-1 0 0 1 166 65)" fill="#006EFF"/>
<circle cx="124" cy="60" r="40" fill="#006EFF"/>
<circle cx="124" cy="102" r="5" fill="#006EFF"/>
<circle cx="115" cy="102" r="5" fill="#006EFF"/>
<circle cx="107" cy="99" r="5" fill="#006EFF"/>
<circle cx="100" cy="94" r="5" fill="#006EFF"/>
<circle cx="90" cy="84" r="5" fill="#006EFF"/>
<circle cx="95" cy="89" r="5" fill="#006EFF"/>
<circle cx="87" cy="77" r="5" fill="#006EFF"/>
<circle cx="85" cy="70" r="5" fill="#006EFF"/>
<circle cx="5" cy="5" r="5" transform="matrix(-1 0 0 1 137 97)" fill="#006EFF"/>
<circle cx="5" cy="5" r="5" transform="matrix(-1 0 0 1 145 94)" fill="#006EFF"/>
<ellipse cx="4.5" cy="5" rx="4.5" ry="5" transform="matrix(-1 0 0 1 151 89)" fill="#006EFF"/>
<circle cx="5" cy="5" r="5" transform="matrix(-1 0 0 1 161 79)" fill="#006EFF"/>
<ellipse cx="4.5" cy="5" rx="4.5" ry="5" transform="matrix(-1 0 0 1 156 84)" fill="#006EFF"/>
<circle cx="5" cy="5" r="5" transform="matrix(-1 0 0 1 164 72)" fill="#006EFF"/>
<circle cx="5" cy="5" r="5" transform="matrix(-1 0 0 1 166 65)" fill="#006EFF"/>
<circle cx="45" cy="61" r="40" fill="#006EFF"/>
<circle cx="45" cy="103" r="5" fill="#006EFF"/>
<circle cx="36" cy="103" r="5" fill="#006EFF"/>
<circle cx="28" cy="100" r="5" fill="#006EFF"/>
<circle cx="21" cy="95" r="5" fill="#006EFF"/>
<circle cx="11" cy="85" r="5" fill="#006EFF"/>
<circle cx="16" cy="90" r="5" fill="#006EFF"/>
<circle cx="6" cy="63" r="5" fill="#006EFF"/>
<circle cx="8" cy="78" r="5" fill="#006EFF"/>
<circle cx="6" cy="71" r="5" fill="#006EFF"/>
<circle cx="5" cy="5" r="5" transform="matrix(-1 0 0 1 58 98)" fill="#006EFF"/>
<circle cx="5" cy="5" r="5" transform="matrix(-1 0 0 1 66 95)" fill="#006EFF"/>
<ellipse cx="4.5" cy="5" rx="4.5" ry="5" transform="matrix(-1 0 0 1 72 90)" fill="#006EFF"/>
<circle cx="5" cy="5" r="5" transform="matrix(-1 0 0 1 82 80)" fill="#006EFF"/>
<ellipse cx="4.5" cy="5" rx="4.5" ry="5" transform="matrix(-1 0 0 1 77 85)" fill="#006EFF"/>
<circle cx="5" cy="5" r="5" transform="matrix(-1 0 0 1 87 58)" fill="#006EFF"/>
<circle cx="5" cy="5" r="5" transform="matrix(-1 0 0 1 85 73)" fill="#006EFF"/>
<circle cx="5" cy="5" r="5" transform="matrix(-1 0 0 1 87 66)" fill="#006EFF"/>
<circle cx="45" cy="61" r="40" fill="#006EFF"/>
<circle cx="45" cy="103" r="5" fill="#006EFF"/>
<circle cx="36" cy="103" r="5" fill="#006EFF"/>
<circle cx="28" cy="100" r="5" fill="#006EFF"/>
<circle cx="21" cy="95" r="5" fill="#006EFF"/>
<circle cx="11" cy="85" r="5" fill="#006EFF"/>
<circle cx="16" cy="90" r="5" fill="#006EFF"/>
<circle cx="6" cy="63" r="5" fill="#006EFF"/>
<circle cx="8" cy="78" r="5" fill="#006EFF"/>
<circle cx="6" cy="71" r="5" fill="#006EFF"/>
<circle cx="5" cy="5" r="5" transform="matrix(-1 0 0 1 58 98)" fill="#006EFF"/>
<circle cx="5" cy="5" r="5" transform="matrix(-1 0 0 1 66 95)" fill="#006EFF"/>
<ellipse cx="4.5" cy="5" rx="4.5" ry="5" transform="matrix(-1 0 0 1 72 90)" fill="#006EFF"/>
<circle cx="5" cy="5" r="5" transform="matrix(-1 0 0 1 82 80)" fill="#006EFF"/>
<ellipse cx="4.5" cy="5" rx="4.5" ry="5" transform="matrix(-1 0 0 1 77 85)" fill="#006EFF"/>
<circle cx="5" cy="5" r="5" transform="matrix(-1 0 0 1 87 58)" fill="#006EFF"/>
<circle cx="5" cy="5" r="5" transform="matrix(-1 0 0 1 85 73)" fill="#006EFF"/>
<circle cx="5" cy="5" r="5" transform="matrix(-1 0 0 1 87 66)" fill="#006EFF"/>
<circle cx="45" cy="61" r="40" fill="#006EFF"/>
<circle cx="45" cy="103" r="5" fill="#006EFF"/>
<circle cx="36" cy="103" r="5" fill="#006EFF"/>
<circle cx="28" cy="100" r="5" fill="#006EFF"/>
<circle cx="21" cy="95" r="5" fill="#006EFF"/>
<circle cx="11" cy="85" r="5" fill="#006EFF"/>
<circle cx="16" cy="90" r="5" fill="#006EFF"/>
<circle cx="6" cy="63" r="5" fill="#006EFF"/>
<circle cx="8" cy="78" r="5" fill="#006EFF"/>
<circle cx="6" cy="71" r="5" fill="#006EFF"/>
<circle cx="5" cy="5" r="5" transform="matrix(-1 0 0 1 58 98)" fill="#006EFF"/>
<circle cx="5" cy="5" r="5" transform="matrix(-1 0 0 1 66 95)" fill="#006EFF"/>
<ellipse cx="4.5" cy="5" rx="4.5" ry="5" transform="matrix(-1 0 0 1 72 90)" fill="#006EFF"/>
<circle cx="5" cy="5" r="5" transform="matrix(-1 0 0 1 82 80)" fill="#006EFF"/>
<ellipse cx="4.5" cy="5" rx="4.5" ry="5" transform="matrix(-1 0 0 1 77 85)" fill="#006EFF"/>
<circle cx="5" cy="5" r="5" transform="matrix(-1 0 0 1 87 58)" fill="#006EFF"/>
<circle cx="5" cy="5" r="5" transform="matrix(-1 0 0 1 85 73)" fill="#006EFF"/>
<circle cx="5" cy="5" r="5" transform="matrix(-1 0 0 1 87 66)" fill="#006EFF"/>
<circle cx="45" cy="61" r="40" fill="#006EFF"/>
<circle cx="45" cy="103" r="5" fill="#006EFF"/>
<circle cx="36" cy="103" r="5" fill="#006EFF"/>
<circle cx="28" cy="100" r="5" fill="#006EFF"/>
<circle cx="21" cy="95" r="5" fill="#006EFF"/>
<circle cx="11" cy="85" r="5" fill="#006EFF"/>
<circle cx="16" cy="90" r="5" fill="#006EFF"/>
<circle cx="6" cy="63" r="5" fill="#006EFF"/>
<circle cx="8" cy="78" r="5" fill="#006EFF"/>
<circle cx="6" cy="71" r="5" fill="#006EFF"/>
<circle cx="5" cy="5" r="5" transform="matrix(-1 0 0 1 58 98)" fill="#006EFF"/>
<circle cx="5" cy="5" r="5" transform="matrix(-1 0 0 1 66 95)" fill="#006EFF"/>
<ellipse cx="4.5" cy="5" rx="4.5" ry="5" transform="matrix(-1 0 0 1 72 90)" fill="#006EFF"/>
<circle cx="5" cy="5" r="5" transform="matrix(-1 0 0 1 82 80)" fill="#006EFF"/>
<ellipse cx="4.5" cy="5" rx="4.5" ry="5" transform="matrix(-1 0 0 1 77 85)" fill="#006EFF"/>
<circle cx="5" cy="5" r="5" transform="matrix(-1 0 0 1 87 58)" fill="#006EFF"/>
<circle cx="5" cy="5" r="5" transform="matrix(-1 0 0 1 85 73)" fill="#006EFF"/>
<circle cx="5" cy="5" r="5" transform="matrix(-1 0 0 1 87 66)" fill="#006EFF"/>
<circle cx="243" cy="5" r="5" fill="#006EFF"/>
<circle cx="243" cy="15" r="5" fill="#006EFF"/>
<circle cx="243" cy="25" r="5" fill="#006EFF"/>
<circle cx="243" cy="35" r="5" fill="#006EFF"/>
<circle cx="243" cy="45" r="5" fill="#006EFF"/>
<circle cx="43" cy="82" r="3" fill="white"/>
<path d="M48 82L55 80L62 82L55 84L48 82Z" fill="white"/>
<path d="M24 82L31 80L38 82L31 84L24 82Z" fill="white"/>
<path d="M43 87L45 94L43 101L41 94L43 87Z" fill="white"/>
<path d="M43 63L45 70L43 77L41 70L43 63Z" fill="white"/>
<path d="M46.4142 85.4142L52.7782 88.9498L56.3137 95.3137L49.9497 91.7782L46.4142 85.4142Z" fill="white"/>
<g clip-path="url(#clip0_141_129)">
<circle cx="43" cy="82" r="3" fill="white"/>
<path d="M48 82L55 80L62 82L55 84L48 82Z" fill="white"/>
<path d="M24 82L31 80L38 82L31 84L24 82Z" fill="white"/>
<path d="M43 87L45 94L43 101L41 94L43 87Z" fill="white"/>
<path d="M43 63L45 70L43 77L41 70L43 63Z" fill="white"/>
<path d="M46.4142 85.4142L52.7782 88.9498L56.3137 95.3137L49.9497 91.7782L46.4142 85.4142Z" fill="white"/>
<path d="M29.4142 68.4142L35.7782 71.9498L39.3137 78.3137L32.9497 74.7782L29.4142 68.4142Z" fill="white"/>
<path d="M46.4142 78.3137L49.9498 71.9497L56.3137 68.4142L52.7782 74.7782L46.4142 78.3137Z" fill="white"/>
<path d="M29.4142 94.3137L32.9498 87.9497L39.3137 84.4142L35.7782 90.7782L29.4142 94.3137Z" fill="white"/>
<path d="M46.4142 85.4142L52.7782 88.9498L56.3137 95.3137L49.9497 91.7782L46.4142 85.4142Z" fill="white"/>
<path d="M24 82L31 80L38 82L31 84L24 82Z" fill="white"/>
<path d="M43 63L45 70L43 77L41 70L43 63Z" fill="white"/>
<path d="M46.4142 78.3137L49.9498 71.9497L56.3137 68.4142L52.7782 74.7782L46.4142 78.3137Z" fill="white"/>
<path d="M29.4142 94.3137L32.9498 87.9497L39.3137 84.4142L35.7782 90.7782L29.4142 94.3137Z" fill="white"/>
<path d="M46.4142 85.4142L52.7782 88.9498L56.3137 95.3137L49.9497 91.7782L46.4142 85.4142Z" fill="white"/>
</g>
<path d="M145.5 15L138 7L153 7L145.5 15Z" fill="white"/>
<path d="M168.5 15L161 7L176 7L168.5 15Z" fill="white"/>
<path d="M191.5 15L184 7L199 7L191.5 15Z" fill="white"/>
<path d="M214.5 15L207 7L222 7L214.5 15Z" fill="white"/>
<rect x="9" y="16.8995" width="14" height="14" transform="rotate(-45 9 16.8995)" fill="white"/>
<rect x="32" y="16.8995" width="14" height="14" transform="rotate(-45 32 16.8995)" fill="white"/>
<rect x="55" y="16.8995" width="14" height="14" transform="rotate(-45 55 16.8995)" fill="white"/>
<rect x="78" y="16.8995" width="14" height="14" transform="rotate(-45 78 16.8995)" fill="white"/>
<rect x="101" y="16.8995" width="14" height="14" transform="rotate(-45 101 16.8995)" fill="white"/>
<rect x="124" y="16.8995" width="14" height="14" transform="rotate(-45 124 16.8995)" fill="white"/>
<rect x="147" y="16.8995" width="14" height="14" transform="rotate(-45 147 16.8995)" fill="white"/>
<rect x="170" y="16.8995" width="14" height="14" transform="rotate(-45 170 16.8995)" fill="white"/>
<rect x="193" y="16.8995" width="14" height="14" transform="rotate(-45 193 16.8995)" fill="white"/>
<rect x="216" y="16.8995" width="14" height="14" transform="rotate(-45 216 16.8995)" fill="white"/>
<path d="M30.5 15L23 7L38 7L30.5 15Z" fill="white"/>
<path d="M30.5 19L38 27H23L30.5 19Z" fill="white"/>
<path d="M53.5 19L61 27H46L53.5 19Z" fill="white"/>
<path d="M76.5 19L84 27H69L76.5 19Z" fill="white"/>
<path d="M99.5 19L107 27H92L99.5 19Z" fill="white"/>
<path d="M122.5 19L130 27H115L122.5 19Z" fill="white"/>
<path d="M145.5 19L153 27H138L145.5 19Z" fill="white"/>
<path d="M168.5 19L176 27H161L168.5 19Z" fill="white"/>
<path d="M191.5 19L199 27H184L191.5 19Z" fill="white"/>
<path d="M214.5 19L222 27H207L214.5 19Z" fill="white"/>
<path d="M53.5 15L46 7L61 7L53.5 15Z" fill="white"/>
<path d="M76.5 15L69 7L84 7L76.5 15Z" fill="white"/>
<path d="M99.5 15L92 7L107 7L99.5 15Z" fill="white"/>
<path d="M122.5 15L115 7L130 7L122.5 15Z" fill="white"/>
<rect x="10" y="33" width="226" height="27" fill="white"/>
<path d="M21.1719 56.9453H23.7354V36.9062H21.1719V35.8516H32.4512V56.9453H35.0146V58H21.1719V56.9453ZM37.71 54.1621C37.71 53.4102 37.8516 52.7656 38.1348 52.2285C38.418 51.6816 38.8184 51.2227 39.3359 50.8516C39.8535 50.4707 40.4736 50.168 41.1963 49.9434C41.9189 49.709 42.7197 49.5283 43.5986 49.4014C44.4873 49.2744 45.4395 49.1914 46.4551 49.1523C47.4707 49.1035 48.5254 49.0791 49.6191 49.0791V48.2588C49.6191 47.0088 49.5312 46.0078 49.3555 45.2559C49.1895 44.5039 48.9307 43.9277 48.5791 43.5273C48.2373 43.127 47.8125 42.8682 47.3047 42.751C46.7969 42.624 46.2061 42.5605 45.5322 42.5605C45.1709 42.5605 44.7852 42.5898 44.375 42.6484C43.9746 42.707 43.6182 42.7754 43.3057 42.8535C43.7549 42.9023 44.1699 43.0146 44.5508 43.1904C44.9316 43.3662 45.2588 43.5859 45.5322 43.8496C45.8057 44.1133 46.0156 44.4062 46.1621 44.7285C46.3184 45.0508 46.3965 45.3779 46.3965 45.71C46.3965 46.1201 46.2939 46.5059 46.0889 46.8672C45.8838 47.2285 45.6006 47.5459 45.2393 47.8193C44.8779 48.083 44.458 48.293 43.9795 48.4492C43.501 48.6055 42.9883 48.6836 42.4414 48.6836C41.8945 48.6836 41.3818 48.6055 40.9033 48.4492C40.4346 48.293 40.0195 48.083 39.6582 47.8193C39.3066 47.5459 39.0283 47.2285 38.8232 46.8672C38.6182 46.5059 38.5156 46.1201 38.5156 45.71C38.5156 45.1631 38.6621 44.6699 38.9551 44.2305C39.2578 43.791 39.6631 43.4053 40.1709 43.0732C40.6885 42.7314 41.2939 42.4385 41.9873 42.1943C42.6904 41.9502 43.4424 41.75 44.2432 41.5938C45.0439 41.4375 45.874 41.3252 46.7334 41.2568C47.6025 41.1787 48.4668 41.1396 49.3262 41.1396C50.8496 41.1396 52.1729 41.2471 53.2959 41.4619C54.4287 41.667 55.3662 42.0381 56.1084 42.5752C56.8604 43.1025 57.4219 43.8301 57.793 44.7578C58.1641 45.6758 58.3496 46.8428 58.3496 48.2588V54.3965C58.3496 55.1289 58.4229 55.6953 58.5693 56.0957C58.7256 56.4863 59.0088 56.6816 59.4189 56.6816C59.624 56.6816 59.79 56.6182 59.917 56.4912C60.0537 56.3545 60.1562 56.1787 60.2246 55.9639C60.3027 55.749 60.3564 55.5 60.3857 55.2168C60.415 54.9336 60.4297 54.6455 60.4297 54.3525V52.9023H61.7334V54.3525C61.7334 55.1338 61.6309 55.793 61.4258 56.3301C61.2305 56.8672 60.8838 57.3018 60.3857 57.6338C59.8975 57.9658 59.2383 58.2002 58.4082 58.3369C57.5879 58.4834 56.5527 58.5566 55.3027 58.5566C54.668 58.5566 54.0723 58.5225 53.5156 58.4541C52.9688 58.3857 52.4658 58.2686 52.0068 58.1025C51.5576 57.9365 51.167 57.7168 50.835 57.4434C50.5029 57.1699 50.2393 56.8281 50.0439 56.418C49.751 56.8672 49.3604 57.2334 48.8721 57.5166C48.3838 57.79 47.8564 58.0049 47.29 58.1611C46.7236 58.3174 46.1523 58.4199 45.5762 58.4688C45 58.5273 44.4727 58.5566 43.9941 58.5566C42.8516 58.5566 41.8799 58.4346 41.0791 58.1904C40.2783 57.9561 39.6289 57.6387 39.1309 57.2383C38.6328 56.8379 38.2715 56.374 38.0469 55.8467C37.8223 55.3096 37.71 54.748 37.71 54.1621ZM46.1621 54.001C46.1621 54.7236 46.2939 55.3096 46.5576 55.7588C46.8213 56.1982 47.2559 56.418 47.8613 56.418C48.3691 56.418 48.7891 56.2373 49.1211 55.876C49.4531 55.5049 49.6191 55.0117 49.6191 54.3965V50.4268C48.916 50.4268 48.3398 50.4902 47.8906 50.6172C47.4414 50.7441 47.085 50.9492 46.8213 51.2324C46.5674 51.5059 46.3916 51.8721 46.2939 52.3311C46.2061 52.79 46.1621 53.3467 46.1621 54.001ZM75.0195 56.9453H77.583V36.9062H75.0195V35.8516H86.2988V56.9453H88.8623V58H75.0195V56.9453ZM90.9424 49.8555C90.9424 48.5957 91.1719 47.4336 91.6309 46.3691C92.0898 45.3047 92.7783 44.3867 93.6963 43.6152C94.6143 42.834 95.7666 42.2285 97.1533 41.7988C98.54 41.3594 100.161 41.1396 102.017 41.1396C103.872 41.1396 105.488 41.3594 106.865 41.7988C108.252 42.2285 109.404 42.834 110.322 43.6152C111.24 44.3867 111.929 45.3047 112.388 46.3691C112.847 47.4336 113.076 48.5957 113.076 49.8555C113.076 51.1152 112.847 52.2773 112.388 53.3418C111.929 54.3965 111.24 55.3145 110.322 56.0957C109.404 56.8672 108.252 57.4727 106.865 57.9121C105.488 58.3418 103.872 58.5566 102.017 58.5566C100.161 58.5566 98.54 58.3418 97.1533 57.9121C95.7666 57.4727 94.6143 56.8672 93.6963 56.0957C92.7783 55.3145 92.0898 54.3965 91.6309 53.3418C91.1719 52.2773 90.9424 51.1152 90.9424 49.8555ZM102.017 57.6484C102.388 57.6484 102.705 57.5264 102.969 57.2822C103.232 57.0381 103.447 56.6182 103.613 56.0225C103.779 55.4268 103.896 54.6309 103.965 53.6348C104.043 52.6289 104.082 51.3691 104.082 49.8555C104.082 48.332 104.043 47.0723 103.965 46.0762C103.896 45.0703 103.779 44.2695 103.613 43.6738C103.447 43.0781 103.232 42.6582 102.969 42.4141C102.705 42.1699 102.388 42.0479 102.017 42.0479C101.636 42.0479 101.313 42.1699 101.05 42.4141C100.786 42.6582 100.571 43.0781 100.405 43.6738C100.239 44.2695 100.117 45.0703 100.039 46.0762C99.9707 47.0723 99.9365 48.332 99.9365 49.8555C99.9365 51.3691 99.9707 52.6289 100.039 53.6348C100.117 54.6309 100.239 55.4268 100.405 56.0225C100.571 56.6182 100.786 57.0381 101.05 57.2822C101.313 57.5264 101.636 57.6484 102.017 57.6484ZM117.295 42.751H114.731V41.6963H117.295C118.281 41.6963 119.165 41.5303 119.946 41.1982C120.737 40.8564 121.406 40.417 121.953 39.8799C122.51 39.333 122.935 38.7227 123.228 38.0488C123.521 37.375 123.667 36.7012 123.667 36.0273H126.011V41.6963H130.728V42.751H126.011V51.7744C126.011 52.8193 126.064 53.6738 126.172 54.3379C126.289 54.9922 126.45 55.5049 126.655 55.876C126.87 56.2471 127.119 56.501 127.402 56.6377C127.695 56.7646 128.018 56.8281 128.369 56.8281C128.711 56.8281 129.043 56.7549 129.365 56.6084C129.688 56.4521 129.971 56.208 130.215 55.876C130.459 55.5342 130.654 55.0947 130.801 54.5576C130.947 54.0107 131.021 53.3418 131.021 52.5508C131.021 52.3652 131.016 52.1748 131.006 51.9795C130.996 51.7744 130.981 51.5645 130.962 51.3496H132.192C132.222 51.8379 132.236 52.2822 132.236 52.6826C132.236 53.9033 132.065 54.8994 131.724 55.6709C131.392 56.4326 130.913 57.0283 130.288 57.458C129.663 57.8877 128.901 58.1807 128.003 58.3369C127.114 58.4932 126.113 58.5713 125 58.5713C123.75 58.5713 122.646 58.4492 121.689 58.2051C120.732 57.9609 119.927 57.5752 119.272 57.0479C118.618 56.5107 118.125 55.8223 117.793 54.9824C117.461 54.1426 117.295 53.1221 117.295 51.9209V42.751ZM133.833 49.6943C133.833 48.3857 134.102 47.2041 134.639 46.1494C135.176 45.0947 135.918 44.1963 136.865 43.4541C137.822 42.7119 138.95 42.1406 140.249 41.7402C141.558 41.3398 142.974 41.1396 144.497 41.1396C145.669 41.1396 146.729 41.2568 147.676 41.4912C148.633 41.7256 149.478 42.0479 150.21 42.458C150.952 42.8584 151.587 43.3369 152.114 43.8936C152.651 44.4502 153.091 45.0508 153.433 45.6953C153.784 46.3398 154.043 47.0186 154.209 47.7314C154.375 48.4346 154.458 49.1426 154.458 49.8555H142.71C142.71 51.3496 142.773 52.5654 142.9 53.5029C143.037 54.4404 143.247 55.1777 143.53 55.7148C143.823 56.2422 144.194 56.6035 144.644 56.7988C145.103 56.9941 145.654 57.0918 146.299 57.0918C147.119 57.0918 147.891 56.9893 148.613 56.7842C149.336 56.5791 149.98 56.291 150.547 55.9199C151.123 55.5391 151.602 55.085 151.982 54.5576C152.363 54.0205 152.622 53.4199 152.759 52.7559H154.136C154.038 53.6641 153.76 54.4795 153.301 55.2021C152.842 55.915 152.231 56.5205 151.47 57.0186C150.718 57.5166 149.829 57.8975 148.804 58.1611C147.788 58.4248 146.675 58.5566 145.464 58.5566C143.56 58.5566 141.88 58.3613 140.425 57.9707C138.979 57.5703 137.769 56.9941 136.792 56.2422C135.815 55.4805 135.078 54.5527 134.58 53.459C134.082 52.3555 133.833 51.1006 133.833 49.6943ZM146.826 48.376C146.797 47.1553 146.738 46.1396 146.65 45.3291C146.562 44.5186 146.436 43.8691 146.27 43.3809C146.104 42.8926 145.898 42.5508 145.654 42.3555C145.41 42.1504 145.117 42.0479 144.775 42.0479C144.434 42.0479 144.136 42.1504 143.882 42.3555C143.638 42.5508 143.433 42.8926 143.267 43.3809C143.101 43.8691 142.974 44.5186 142.886 45.3291C142.798 46.1396 142.744 47.1553 142.725 48.376H146.826ZM156.963 56.9453H159.526V42.751H156.963V41.6963H168.242V43.5713C168.555 43.1904 168.926 42.8535 169.355 42.5605C169.785 42.2578 170.259 42.0039 170.776 41.7988C171.304 41.584 171.865 41.4229 172.461 41.3154C173.066 41.1982 173.691 41.1396 174.336 41.1396C175.01 41.1396 175.615 41.2227 176.152 41.3887C176.689 41.5547 177.148 41.7842 177.529 42.0771C177.91 42.3604 178.198 42.7021 178.394 43.1025C178.599 43.4932 178.701 43.918 178.701 44.377C178.701 44.8164 178.589 45.2314 178.364 45.6221C178.149 46.0127 177.847 46.3545 177.456 46.6475C177.075 46.9404 176.626 47.1748 176.108 47.3506C175.591 47.5166 175.039 47.5996 174.453 47.5996C173.867 47.5996 173.315 47.5166 172.798 47.3506C172.28 47.1748 171.826 46.9404 171.436 46.6475C171.055 46.3545 170.752 46.0127 170.527 45.6221C170.303 45.2314 170.19 44.8164 170.19 44.377C170.19 44.1523 170.22 43.9326 170.278 43.7178C170.347 43.4932 170.435 43.2832 170.542 43.0879C170.337 43.1855 170.098 43.3369 169.824 43.542C169.561 43.7373 169.312 43.9814 169.077 44.2744C168.843 44.5674 168.643 44.9092 168.477 45.2998C168.32 45.6807 168.242 46.0957 168.242 46.5449V56.9453H171.084V58H156.963V56.9453ZM186.934 40.2168C186.367 40.2168 185.82 40.1631 185.293 40.0557C184.766 39.9385 184.302 39.7578 183.901 39.5137C183.501 39.2598 183.179 38.9375 182.935 38.5469C182.69 38.1562 182.568 37.6777 182.568 37.1113C182.568 36.5449 182.69 36.0664 182.935 35.6758C183.179 35.2754 183.501 34.9531 183.901 34.709C184.302 34.4551 184.766 34.2744 185.293 34.167C185.82 34.0498 186.367 33.9912 186.934 33.9912C187.49 33.9912 188.032 34.0498 188.56 34.167C189.087 34.2744 189.551 34.4551 189.951 34.709C190.352 34.9531 190.674 35.2705 190.918 35.6611C191.162 36.0518 191.284 36.5303 191.284 37.0967C191.284 37.6631 191.162 38.1465 190.918 38.5469C190.674 38.9375 190.352 39.2598 189.951 39.5137C189.551 39.7578 189.087 39.9385 188.56 40.0557C188.032 40.1631 187.49 40.2168 186.934 40.2168ZM180.166 56.9453H182.729V42.751H180.166V41.6963H191.445V56.9453H194.009V58H180.166V56.9453ZM196.704 54.1621C196.704 53.4102 196.846 52.7656 197.129 52.2285C197.412 51.6816 197.812 51.2227 198.33 50.8516C198.848 50.4707 199.468 50.168 200.19 49.9434C200.913 49.709 201.714 49.5283 202.593 49.4014C203.481 49.2744 204.434 49.1914 205.449 49.1523C206.465 49.1035 207.52 49.0791 208.613 49.0791V48.2588C208.613 47.0088 208.525 46.0078 208.35 45.2559C208.184 44.5039 207.925 43.9277 207.573 43.5273C207.231 43.127 206.807 42.8682 206.299 42.751C205.791 42.624 205.2 42.5605 204.526 42.5605C204.165 42.5605 203.779 42.5898 203.369 42.6484C202.969 42.707 202.612 42.7754 202.3 42.8535C202.749 42.9023 203.164 43.0146 203.545 43.1904C203.926 43.3662 204.253 43.5859 204.526 43.8496C204.8 44.1133 205.01 44.4062 205.156 44.7285C205.312 45.0508 205.391 45.3779 205.391 45.71C205.391 46.1201 205.288 46.5059 205.083 46.8672C204.878 47.2285 204.595 47.5459 204.233 47.8193C203.872 48.083 203.452 48.293 202.974 48.4492C202.495 48.6055 201.982 48.6836 201.436 48.6836C200.889 48.6836 200.376 48.6055 199.897 48.4492C199.429 48.293 199.014 48.083 198.652 47.8193C198.301 47.5459 198.022 47.2285 197.817 46.8672C197.612 46.5059 197.51 46.1201 197.51 45.71C197.51 45.1631 197.656 44.6699 197.949 44.2305C198.252 43.791 198.657 43.4053 199.165 43.0732C199.683 42.7314 200.288 42.4385 200.981 42.1943C201.685 41.9502 202.437 41.75 203.237 41.5938C204.038 41.4375 204.868 41.3252 205.728 41.2568C206.597 41.1787 207.461 41.1396 208.32 41.1396C209.844 41.1396 211.167 41.2471 212.29 41.4619C213.423 41.667 214.36 42.0381 215.103 42.5752C215.854 43.1025 216.416 43.8301 216.787 44.7578C217.158 45.6758 217.344 46.8428 217.344 48.2588V54.3965C217.344 55.1289 217.417 55.6953 217.563 56.0957C217.72 56.4863 218.003 56.6816 218.413 56.6816C218.618 56.6816 218.784 56.6182 218.911 56.4912C219.048 56.3545 219.15 56.1787 219.219 55.9639C219.297 55.749 219.351 55.5 219.38 55.2168C219.409 54.9336 219.424 54.6455 219.424 54.3525V52.9023H220.728V54.3525C220.728 55.1338 220.625 55.793 220.42 56.3301C220.225 56.8672 219.878 57.3018 219.38 57.6338C218.892 57.9658 218.232 58.2002 217.402 58.3369C216.582 58.4834 215.547 58.5566 214.297 58.5566C213.662 58.5566 213.066 58.5225 212.51 58.4541C211.963 58.3857 211.46 58.2686 211.001 58.1025C210.552 57.9365 210.161 57.7168 209.829 57.4434C209.497 57.1699 209.233 56.8281 209.038 56.418C208.745 56.8672 208.354 57.2334 207.866 57.5166C207.378 57.79 206.851 58.0049 206.284 58.1611C205.718 58.3174 205.146 58.4199 204.57 58.4688C203.994 58.5273 203.467 58.5566 202.988 58.5566C201.846 58.5566 200.874 58.4346 200.073 58.1904C199.272 57.9561 198.623 57.6387 198.125 57.2383C197.627 56.8379 197.266 56.374 197.041 55.8467C196.816 55.3096 196.704 54.748 196.704 54.1621ZM205.156 54.001C205.156 54.7236 205.288 55.3096 205.552 55.7588C205.815 56.1982 206.25 56.418 206.855 56.418C207.363 56.418 207.783 56.2373 208.115 55.876C208.447 55.5049 208.613 55.0117 208.613 54.3965V50.4268C207.91 50.4268 207.334 50.4902 206.885 50.6172C206.436 50.7441 206.079 50.9492 205.815 51.2324C205.562 51.5059 205.386 51.8721 205.288 52.3311C205.2 52.79 205.156 53.3467 205.156 54.001Z" fill="#006EFF"/>
<path d="M123 87L125 94L123 101L121 94L123 87Z" fill="white"/>
<path d="M109.414 94.3137L112.95 87.9497L119.314 84.4142L115.778 90.7782L109.414 94.3137Z" fill="white"/>
<path d="M126.414 85.4142L132.778 88.9498L136.314 95.3137L129.95 91.7782L126.414 85.4142Z" fill="white"/>
<path d="M204 89L206 96L204 103L202 96L204 89Z" fill="white"/>
<path d="M190.414 96.3137L193.95 89.9497L200.314 86.4142L196.778 92.7782L190.414 96.3137Z" fill="white"/>
<path d="M207.414 87.4142L213.778 90.9498L217.314 97.3137L210.95 93.7782L207.414 87.4142Z" fill="white"/>
<path d="M109.414 69.4142L115.778 72.9498L119.314 79.3137L112.95 75.7782L109.414 69.4142Z" fill="white"/>
<path d="M123 64L125 71L123 78L121 71L123 64Z" fill="white"/>
<path d="M126.414 79.3137L129.95 72.9497L136.314 69.4142L132.778 75.7782L126.414 79.3137Z" fill="white"/>
<circle cx="204" cy="83" r="3" fill="white"/>
<path d="M209 83L216 81L223 83L216 85L209 83Z" fill="white"/>
<path d="M185 83L192 81L199 83L192 85L185 83Z" fill="white"/>
<circle cx="123" cy="82" r="3" fill="white"/>
<path d="M128 82L135 80L142 82L135 84L128 82Z" fill="white"/>
<path d="M104 82L111 80L118 82L111 84L104 82Z" fill="white"/>
<path d="M190.414 69.4142L196.778 72.9498L200.314 79.3137L193.95 75.7782L190.414 69.4142Z" fill="white"/>
<path d="M204 64L206 71L204 78L202 71L204 64Z" fill="white"/>
<path d="M207.414 79.3137L210.95 72.9497L217.314 69.4142L213.778 75.7782L207.414 79.3137Z" fill="white"/>
<defs>
<clipPath id="clip0_141_129">
<rect width="100" height="100" fill="white" transform="translate(13 30)"/>
</clipPath>
</defs>
</svg>
